# xmcd
#
# Track frame offsets: 
#        182
#        36605
#        75517
#        102564
#        139869
#        175172
#        197590
#        257990
#        311804
#
# Disc length: 4528 seconds
#
# Revision: 5
# Processed by: cddbd v1.5.2PL0 Copyright (c) Steve Scherf et al.
# Submitted via: ExactAudioCopy v0.99pb4
#
DISCID=8111ae09
DTITLE=David Oistrakh - David Oistrakh - The Complete EMI Recordings [
DTITLE=Disc  9]
DYEAR=2008
DGENRE=Concerto
TTITLE0=Mozart: Violin Concerto no.1 in B-flat major, K.207 (rec.1971)
TTITLE0=1. Allegro moderato
TTITLE1=Mozart: Violin Concerto no.1 in B-flat major, K.207 (rec.1971)
TTITLE1=2. Adagio
TTITLE2=Mozart: Violin Concerto no.1 in B-flat major, K.207 (rec.1971)
TTITLE2=3. Presto
TTITLE3=Mozart: Violin Concerto no.2 in D major, K.211 (rec.1971) - 1.
TTITLE3=Allegro moderato
TTITLE4=Mozart: Violin Concerto no.2 in D major, K.211 (rec.1971) - 2.
TTITLE4=Andante
TTITLE5=Mozart: Violin Concerto no.2 in D major, K.211 (rec.1971) - 3.
TTITLE5=Rondeau. Allegro
TTITLE6=Mozart: Sinfonia concertante in E-flat major, K.364 (rec.1972)
TTITLE6=1. Allegro maestoso
TTITLE7=Mozart: Sinfonia concertante in E-flat major, K.364 (rec.1972)
TTITLE7=2. Andante
TTITLE8=Mozart: Sinfonia concertante in E-flat major, K.364 (rec.1972)
TTITLE8=3. Presto
EXTD=
EXTT0=
EXTT1=
EXTT2=
EXTT3=
EXTT4=
EXTT5=
EXTT6=
EXTT7=
EXTT8=
PLAYORDER=
